<svg xmlns="http://www.w3.org/2000/svg" viewBox="0 0 1024 1024" fill="none">
  <defs>
    <linearGradient id="bg" x1="0%" y1="0%" x2="100%" y2="100%">
      <stop offset="0%" style="stop-color:#667EEA"/>
      <stop offset="100%" style="stop-color:#764BA2"/>
    </linearGradient>
  </defs>
  <rect width="1024" height="1024" rx="180" fill="url(#bg)"/>
  <g transform="translate(512, 512)">
    <!-- Chat Bubble -->
    <path d="M-300 -250 Q-300 -300 -250 -300 L150 -300 Q200 -300 200 -250 L200 50 Q200 100 150 100 L-100 100 L-200 200 L-200 100 L-250 100 Q-300 100 -300 50 Z" fill="white"/>
    <!-- AI Sparkle -->
    <path d="M100 -150 L140 -150 L160 -200 L180 -150 L220 -150 L180 -120 L200 -90 L160 -100 L140 -90 L120 -120 Z" fill="#FFD700"/>
    <!-- Dots -->
    <circle cx="-200" cy="-150" r="25" fill="#667EEA"/>
    <circle cx="-120" cy="-150" r="25" fill="#667EEA"/>
    <circle cx="-40" cy="-150" r="25" fill="#667EEA"/>
  </g>
</svg>
