<svg xmlns="http://www.w3.org/2000/svg" viewBox="0 0 1024 1024" fill="none">
  <defs>
    <linearGradient id="bg" x1="0%" y1="0%" x2="100%" y2="100%">
      <stop offset="0%" style="stop-color:#F59E0B"/>
      <stop offset="100%" style="stop-color:#D97706"/>
    </linearGradient>
  </defs>
  <rect width="1024" height="1024" rx="180" fill="url(#bg)"/>
  <g transform="translate(512, 512)">
    <!-- Lightbulb -->
    <path d="M0 -280 Q-120 -200 -120 -80 Q-120 20 0 80 Q120 20 120 -80 Q120 -200 0 -280" fill="white"/>
    <!-- Rays -->
    <path d="M0 -320 L0 -360" stroke="white" stroke-width="20" stroke-linecap="round"/>
    <path d="M-180 -220 L-220 -260" stroke="white" stroke-width="20" stroke-linecap="round"/>
    <path d="M180 -220 L220 -260" stroke="white" stroke-width="20" stroke-linecap="round"/>
    <path d="M-240 -40 L-280 -40" stroke="white" stroke-width="20" stroke-linecap="round"/>
    <path d="M240 -40 L280 -40" stroke="white" stroke-width="20" stroke-linecap="round"/>
    <!-- Recommendation Items -->
    <rect x="-80" y="100" width="160" height="40" rx="10" fill="white" opacity="0.6"/>
    <rect x="-80" y="160" width="160" height="40" rx="10" fill="white" opacity="0.4"/>
    <rect x="-80" y="220" width="160" height="40" rx="10" fill="white" opacity="0.2"/>
  </g>
</svg>
